/* XPM */
static char *_34b8e1464ed4aefdc7d97e155dd59c2[] = {
/* columns rows colors chars-per-pixel */
"64 64 249 2 ",
"   c #030102",
".  c #080609",
"X  c #060B0B",
"o  c #0B0B0B",
"O  c #150707",
"+  c #1C0606",
"@  c #1B0807",
"#  c #1E0708",
"$  c #140A0A",
"%  c #1B0B0A",
"&  c #0E1502",
"*  c #0F1800",
"=  c #0F120A",
"-  c #151806",
";  c #161E06",
":  c #14120B",
">  c #1D150B",
",  c #151B0B",
"<  c #0C0F10",
"1  c #141414",
"2  c #1B1413",
"3  c #1C1D15",
"4  c #19171A",
"5  c #161A18",
"6  c #1C1C1C",
"7  c #250404",
"8  c #2A0404",
"9  c #260E07",
"0  c #250B09",
"q  c #2C0B0C",
"w  c #340303",
"e  c #3C0302",
"r  c #370A06",
"t  c #3C0905",
"y  c #330A09",
"u  c #3A090A",
"i  c #201509",
"p  c #241C0C",
"a  c #331409",
"s  c #30190A",
"d  c #3C1D0C",
"f  c #241313",
"g  c #2B1715",
"h  c #221B1B",
"j  c #2B1C1C",
"k  c #3A1B1B",
"l  c #192106",
"z  c #1B230A",
"x  c #0D2511",
"c  c #1C2014",
"v  c #182B18",
"b  c #173517",
"n  c #1C3A1A",
"m  c #2A220E",
"M  c #222A0E",
"N  c #27280D",
"B  c #392205",
"V  c #3D220F",
"C  c #2C2412",
"Z  c #242D12",
"A  c #262816",
"S  c #24221D",
"D  c #29241A",
"F  c #312512",
"G  c #352A13",
"H  c #3B2D15",
"J  c #392719",
"K  c #3D2B1A",
"L  c #2A3216",
"P  c #2C3419",
"I  c #383716",
"U  c #3A3C19",
"Y  c #171C20",
"T  c #1E1C20",
"R  c #201F20",
"E  c #1E2423",
"W  c #232323",
"Q  c #292625",
"!  c #26292B",
"~  c #2C2C2D",
"^  c #332E29",
"/  c #223220",
"(  c #2F3720",
")  c #353B27",
"_  c #2E2E30",
"`  c #343334",
"'  c #343836",
"]  c #37393A",
"[  c #3B3B3B",
"{  c #440101",
"}  c #4B0201",
"|  c #430D05",
" . c #4E0D04",
".. c #430C0C",
"X. c #4C0B0A",
"o. c #530404",
"O. c #5C0605",
"+. c #540A02",
"@. c #5B0A06",
"#. c #540B0B",
"$. c #5B0908",
"%. c #441208",
"&. c #481208",
"*. c #461A0C",
"=. c #4B1A09",
"-. c #551908",
";. c #5C0F10",
":. c #461414",
">. c #4C1212",
",. c #581312",
"<. c #620505",
"1. c #6C0202",
"2. c #600807",
"3. c #640A0A",
"4. c #6A0D0D",
"5. c #651207",
"6. c #691C04",
"7. c #6D100F",
"8. c #6F0E10",
"9. c #710F10",
"0. c #661613",
"q. c #6E1111",
"w. c #6E1E16",
"e. c #731413",
"r. c #791717",
"t. c #751813",
"y. c #731C1B",
"u. c #7B1B1B",
"i. c #472209",
"p. c #4A230D",
"a. c #4B2A0C",
"s. c #572708",
"d. c #59270A",
"f. c #4B2511",
"g. c #412D15",
"h. c #482914",
"j. c #5A2512",
"k. c #562915",
"l. c #413117",
"z. c #45341A",
"x. c #49351A",
"c. c #423E1C",
"v. c #4C3A1C",
"b. c #563111",
"n. c #593312",
"m. c #52351C",
"M. c #533C1D",
"N. c #593C1E",
"B. c #6A2402",
"V. c #622804",
"C. c #6A2B03",
"Z. c #662B09",
"A. c #732C03",
"S. c #7A2A07",
"D. c #7A3302",
"F. c #783706",
"G. c #7C390A",
"H. c #692F11",
"J. c #72291D",
"K. c #693C10",
"L. c #463B27",
"P. c #5B3E22",
"I. c #403E3B",
"U. c #503F31",
"Y. c #7F2922",
"T. c #643C21",
"R. c #6C3E24",
"E. c #7D3828",
"W. c #3E460C",
"Q. c #2C4610",
"!. c #3D660E",
"~. c #366518",
"^. c #4D481D",
"/. c #54401D",
"(. c #4A541B",
"). c #515B1F",
"_. c #6D451E",
"`. c #784A14",
"'. c #775219",
"]. c #48651A",
"[. c #6D7B13",
"{. c #4D4125",
"}. c #574221",
"|. c #5B4121",
" X c #594E21",
".X c #5A462F",
"XX c #4D5A25",
"oX c #5E5529",
"OX c #575A28",
"+X c #45413B",
"@X c #5B4A3C",
"#X c #46573D",
"$X c #644424",
"%X c #6A4525",
"&X c #6C4827",
"*X c #6E4928",
"=X c #724925",
"-X c #744D2A",
";X c #7A4E2B",
":X c #7B522D",
">X c #516728",
",X c #657E28",
"<X c #7C6937",
"1X c #444444",
"2X c #4B4B4C",
"3X c #4A5A49",
"4X c #544F52",
"5X c #545354",
"6X c #5A5654",
"7X c #5C5C5B",
"8X c #625A52",
"9X c #65625D",
"0X c gray39",
"qX c #9E0000",
"wX c #9D1A0E",
"eX c #811C1C",
"rX c #A40000",
"tX c #9E2413",
"yX c #874307",
"uX c #85450B",
"iX c #894608",
"pX c #8D4C0C",
"aX c #914104",
"sX c #904F0C",
"dX c #93520E",
"fX c #985009",
"gX c #8B5D18",
"hX c #9C5C13",
"jX c #985C16",
"kX c #A05D12",
"lX c #9E6215",
"zX c #986819",
"xX c #A16415",
"cX c #A86210",
"vX c #A66E19",
"bX c #B36E14",
"nX c #A8731B",
"mX c #B87B1A",
"MX c #845924",
"NX c #80542F",
"BX c #845631",
"VX c #8B5532",
"CX c #845A33",
"ZX c #8C5A34",
"AX c #8B6020",
"SX c #936523",
"DX c #9F7122",
"FX c #A37022",
"GX c green",
/* pixels */
"GXGXGXGXGXGXGXGXGXGXGXGXGXGXGXGXGXGXGXGXGXGXGXGXGXGXGXGXGXGXGXGXGXGXGXGXGXGXGXGXGXGXGXGXGXGXGXGXGXGXGXGXGXGXGXGXGXGXGXGXGXGXGXGX",
"GXGXGXGXGXGXGXGXGXGXGXGXGXGXGXGXGXGXGXGXGXGXGXGXGXGXGXGXGXGXGXGXGXGXGXGXGXGXGXGXGXGXGXGXGXGXGXGXGXGXGXGXGXGXGXGXGXGXGXGXGXGXGXGX",
"GXGXGXGXGXGXGXGXGXGXGXGXGXGXGXGXGXGXGXGXGXGXGXGXGXGXGXGXGXGXGXGXGXGXGXGXGXGXGXGXGXGXGXGXGXGXGXGXGXGXGXGXGXGXGXGXGXGXGXGXGXGXGXGX",
"GXGXGXGXGXGXGXGXGXGXGXGXGXGXGXGXGXGXGXGXGXGXGXGXGXGXGXGXGXGXGXGXGXGXGXGXGXGXGXGXGXGXGXGXGXGXGXGXGXGXGXGXGXGXGXGXGXGXGXGXGXGXGXGX",
"GXGXGXGXGXGXGXGXGXGXGXGXGXGXGXGXGXGXGXGXGXGXGXGXGXGXGXGXGXGXGXGXGXGXGXGXGXGXGXGXGXGXGXGXGXGXGXGXGXGXGXGXGXGXGXGXGXGXGXGXGXGXGXGX",
"GXGXGXGXGXGXGXGXGXGXGXGXGXGXGXGXGXGXGXGXGXGXGXGXGXGXGXGXGXGXGXGXGXGXGXGXGXGXGXGXGXGXGXGXGXGXGXGXGXGXGXGXGXGXGXGXGXGXGXGXGXGXGXGX",
"GXGXGXGXGXGXGXGXGXGXGXGXGXGXGXGXGXGXGXGXGXGXGXGXGXGXGXGXGXGXGXGXGXGXGXGXGXGXGXGXGXGXGXGXGXGXGXGXGXGXGXGXGXGXGXGXGXGXGXGXGXGXGXGX",
"GXGXGXGXGXGXGXGXGXGXGXGXGXGXGXGXGXGXGXGXGXGXGXGXGXGXGXGXGXGXGXGXGXGXGXGXGXGXGXGXGXGXGXGXGXGXGXGXGXGXGXGXGXGXGXGXGXGXGXGXGXGXGXGX",
"GXGXGXGXGXGXGXGXGXGXGXGXGXGXGXGXGXGXGXGXGXGXGXGXGXGXGXGXGXGXGXGXGXGXGXGXGXGXGXGXGXGXGXGXGXGXGXGXGXGXGXGXGXGXGXGXGXGXGXGXGXGXGXGX",
"GXGXGXGXGXGXGXGXGXGXGXGXGXGXGXGXGXGXGXGXGXGXGXGXGXGXGXGXGXGXGXGXGXGXGXGXGXGXGXGXGXGXGXGXGXGXGXGXGXGXGXGXGXGXGXGXGXGXGXGXGXGXGXGX",
"GXGXGXGXGXGXGXGXGXGXGXGXGXGXGXGXGXGXGXGXGXGXGXGXGXGXGXGXGXGXGXGXGXGXGXGXGXGXGXGXGXGXGXGXGXGXGXGXGXGXGXGXGXGXGXGXGXGXGXGXGXGXGXGX",
"GXGXGXGXGXGXGXGXGXGXGXGXGXGXGXGXGXGXGXGXGXGXGXGXGXGXGXGXGXGXGXGXGXGXGXGXGXGXGXGXGXGXGXGXGXGXGXGXGXGXGXGXGXGXGXGXGXGXGXGXGXGXGXGX",
"GXGXGXGXGXGXGXGXGXGXGXGXGXGXGXGXGXGXGXGXGXGXGXGXGXGXGXGXGXGXGXGXGXGXGXGXGXGXGXGXGXGXGXGXGXGXGXGXGXGXGXGXGXGXGXGXGXGXGXGXGXGXGXGX",
"GXGXGXGXGXGXGXGXGXGXGXGXGXGXGXGXGXGXGXGXGXGXGXGXGXGXGXGX|.%X*X*X&XT.oXGXGXGXGXGXGXGXGXGXGXGXGXGXGXGXGXGXGXGXGXGXGXGXGXGXGXGXGXGX",
"GXGXGXGXGXGXGXGXGXGXGXGXGXGXGXGXGXGXGXGXGXGXGXGXGXGX>X*X:XBXVXCXBX:X-XoXGXGXGXGXGXGXGXGXGXGXGXGXGXGXGXGXGXGXGXGXGXGXGXGXGXGXGXGX",
"GXGXGXGXGXGXGXGXGXGXGXGXGXGXGXGXGXGXGXGXGXGXGXGXGXOXR.;X:X:XZXZX:X:X:XR.}.GXGXGXGXGXGXGXGXGXGXGXGXGXGXGXGXGXGXGXGXGXGXGXGXGXGXGX",
"GXGXGXGXGXGXGXGXGXGXGXGXGXGXGXGXGXGXGXGXGXGXGXGXGXXXP.;X*X%X*X*X%X%X:XT.v.GXGXGXGXGXGXGXGXGXGXGXGXGXGXGXGXGXGXGXGXGXGXGXGXGXGXGX",
"GXGXGXGXGXGXGXGXGXGXGXGXGXGXGXGXGXGXGXGXGXGXGXGXGX$Xg.%XCX:XBXNXCX:X:XH P.].GXGXGXGXGXGXGXGXGXGXGXGXGXGXGXGXGXGXGXGXGXGXGXGXGXGX",
"GXGXGXGXGXGXGXGXGXGXGXGXGXGXGXGXGXGXGXGXGXGXGXGXGXR.:XtX5.I P.P.c.=.wX:X;Xv.GXGXGXGXGXGXGXGXGXGXGXGXGXGXGXGXGXGXGXGXGXGXGXGXGXGX",
"GXGXGXGXGXGXGXGXGXGXGXGXGXGXGXGXGXGXGXGXGXGXGXGXGXm.-XBX:X-X-X-X-X:XBX:XP.L.GXGXGXGXGXGXGXGXGXGXGXGXGXGXGXGXGXGXGXGXGXGXGXGXGXGX",
"GXGXGXGXGXGXGXGXGXGXGXGXGXGXGXGXGXGXGXGXGXGXGXGXGXJ /.E.T.V %.%.d m.E.|.x.' GXGXGXGXGXGXGXGXGXGXGXGXGXGXGXGXGXGXGXGXGXGXGXGXGXGX",
"GXGXGXGXGXGXGXGXGXGXGXGXGXGXGXGXGXGXGXGXGXn v b 6 J M.E.;.o.qXrX1.X.Y.P.g.>.a.GXGXGXGXGXGXGXGXGXGXGXGXGXGXGXGXGXGXGXGXGXGXGXGXGX",
"GXGXGXGXGXGXGXGXGXGXGXGXGXGXGX2.O.2.O.2.$.S E W W w f.J.O.o.1.1.1.} J.k.{ { O.<.O.O.<.O.O.2.O. XGXGXGXGXGXGXGXGXGXGXGXGXGXGXGXGX",
"GXGXGXGXGXGXGXGXGXGXGXGXGXGXGX$.4.8.4.4.3.Q ! W W g *.w.X.} <.O.<.} w.j.} { O.3.3.7.7.8.4.4.<.m.GXGXGXGXGXGXGXGXGXGXGXGXGXGXGXGX",
"GXGXGXGXGXGXGXGXGXGXGXGXd.7.e.q.4.eXr.e.4.Q ~ _ W 6 y o.r i t } e y $.8.7.O.3.7.8.e.r.eX8.3.7.e.7.0.].GXGXGXGXGXGXGXGXGXGXGXGXGX",
"GXGXGXGXGXGXGXGXGXGX(.o.4.e.r.r.3.$.3.2.$.6 E ! Q E >.e.9.y o . 0 4.r.r.r.r.O.} o.4.4.2.3.4.q.t.q.7.@.a.GXGXGXGXGXGXGXGXGXGXGXGX",
"GXGXGXGXGXGXGXGXGXGX^.O.4.e.e.e.3.o.} } } o.f 5 6 R 5 :.e.4.y 8 2.t.t.r.u.r.7.O.} } o.o.3.8.q.e.e.7.O.=.GXGXGXGXGXGXGXGXGXGXGXGX",
"GXGXGXGXGXGXGXGXGXGX^.} O.3.3.3.O.o.{ { { o.7 $ 1 5 5 5 g #.} { $.3.3.3.3.3.$.o.o.w e o.O.2.3.3.3.@.o.p.GXGXGXGXGXGXGXGXGXGXGXGX",
"GXGXGXGXGXGXGXGXGXGXXXf.k.k.h.f.*.a 9 @ # { { w $ < o 1 1 2 y { } O.o.o.o.o.o.o.o.# % a d d d p.f.V a I GXGXGXGXGXGXGXGXGXGXGXGX",
"GXGXGXGXGXGXGXGXGX].N.%X-X-X%XM.H p > o . . e { { + X . . o 4 c M C o.o.{ { { { O < > p G H l.v.M./.M.H Q.GXGXGXGXGXGXGXGXGXGXGX",
"GXGXGXGXGXGXGXGXGXXX%X:X:X*X$XM.F p Z o o . $ O O O + $ o . , P ) ) L = o O O O + : : p F F H v.M.|.|.v.U GXGXGXGXGXGXGXGXGXGXGX",
"GXGXGXGXGXGXGXGXGXT.;X:X-X&XP.l.p N )., o 7 { { { e { w 8 # 3 P M Z Z c 1 q { { 8 : 1 1 p m m H z.v.M.P.v.U GXGXGXGXGXGXGXGXGXGX",
"GXGXGXGXGXGXGXGXGXzXDXFXMX|.m.J B B.B.s.-.@ { { } o.3.O.o.8 o , M M ; = . : f e % 1 R E S S W D G H H z.v.g.W.GXGXGXGXGXGXGXGXGX",
"GXGXGXGXGXGXGX<XZXZX;XSXmXSXP.b.A.A.Z.^ ^ o.O.3.4.e.$.7 . o X X o o o o . o o 1 4 W ~ ~ ` ' ~ D m s { o.@.$.=.GXGXGXGXGXGXGXGXGX",
"GXGXGXGXGXGX<XVX;X%X:X-XAXbX`.b.A.V.l ; ; l z , z z ; , > : = : = o . o o o o o o 1 W ~ ` ' ` ~ j t | |  .#.p.GXGXGXGXGXGXGXGXGX",
"GXGXGXGXGXGXCX;X%X|.M.z.'.bX`.!.GXGXz & * ; M M M z = G l.p F p > > : : : = o . o . 1 W _ _ _ ^ ! D H v.|.m.U GXGXGXGXGXGXGXGXGX",
"GXGXGXGXGX:X-X=X|.M.z.J `.cX[.GXGXGX; & * l l 3 3 3 1 F G m m m p > > > p 3 6 o . 1 R 4 ! ] L.v.D 6 K M.&XM.U GXGXGXGXGXGXGXGXGX",
"GXGXGXGXGXGXOXM.}.v.l.I s.uXhXGXGXGXT Q _ ~ 6 5 W W W T , ; l ; ; l ; ; ; 5 6 6 o W [ ` ` ] U.$XL.` +Xm.|.x.U GXGXGXGXGXGXGXGXGX",
"GXGXGXGXGXGXGXGXGXGXGXGXGX,XaXGXGXGX! 4 6 R h W ! W ! W 3 l L ( L M M ; , 1 2 C.cXL.] [ _ ~ ] @X_..X1XI.M.z.~.GXGXGXGXGXGXGXGXGX",
"GXGXGXGXGXGXGXGXGXGXGXGXGX,XaXkX`.A 6 4 6 W 6 4 6 1 4 ! 3 l L P L M z & 1 4 3 G.mX{.` [ ` ~ ] @X=X.X2X+Xz.c.GXGXGXGXGXGXGXGXGXGX",
"GXGXGXGXGXGXGXGXGXGXGXGXGXGXGXGXlXzXZ.| { 0.,.t j T 6 1 6 c ; z z , > e e V.gXjXfXl.! [ 1X1X2X6X8X9X7X4X#XGXGXGXGXGXGXGXGXGXGXGX",
"GXGXGXGXGXGXGXGXGXGXGXGXGXGXGXGXlXnXF. . .t.3.} j W h 1 W 3 * - ; , % e } A.vXlXyXJ ! [ 1X1X2X6X7X0X7X5X3XGXGXGXGXGXGXGXGXGXGXGX",
"GXGXGXGXGXGXGXGXGXGXGXGXGXGXGXGXZ.sXsXxXlXyXS.7.@.o.} y f q 7 o 1 3 s i.D.lXvXsXD Y ~ 1X4X2X1X` ! ! ` ` 1X3XGXGXGXGXGXGXGXGXGXGX",
"GXGXGXGXGXGXGXGXGXGXGXGXGXGXGXGX2 a.iXxXlXdXxXpXG.C.6.+.u 0 r i.n.K.uXlXdXnXuXp.u j ` ] ` ` ` ~ ~ [ +X_ W _ GXGXGXGXGXGXGXGXGXGX",
"GXGXGXGXGXGXGXGXGXGXGXGXGXGXGXGX5 5 9 5.5.D.iXdXnXkXdXuXuXuXyXpXsXvXlXvXyXD.-.# e k ! W _ [ [ ] Q 6 W 6 ~ ` ' GXGXGXGXGXGXGXGXGX",
"GXGXGXGXGXGXGXGXGXGXGXGXGXGXGXGXGXx # o.@.4.4.4.B.D.hXhXzXlXjXlXjXxXF.s.h { e # { 7 6 Q 6 4 1 1 h ! W W 4 1 n GXGXGXGXGXGXGXGXGX",
"GXGXGXGXGXGXGXGXGXGXGXGXGXGXGXGXGXGXo.$.@.>.>.:.u t &.| =.=.%.*. .-.S 1 1 4 { >.>.j q GXGX6 6 W W R W 6 S GXGXGXGXGXGXGXGXGXGXGX",
"GXGXGXGXGXGXGXGXGXGXGXGXGXGXGXGXGX{ q k k ~ ~ Q R 6 4 1 o 1 = o > f W 6 Y W k W W 6 4 GXGXGXGXGXT 6 / GXGXGXGXGXGXGXGXGXGXGXGXGX",
"GXGXGXGXGXGXGXGXGXGXGXGXGXGXGXGXGX} ;.y.y.u.u.y.y.3.f y 7 . o o < 1 4 6 6 R W E ! ..GXGXGXGXGXGXGXGXGXGXGXGXGXGXGXGXGXGXGXGXGXGX",
"GXGXGXGXGXGXGXGXGXGXGXGXGXGXGXGXGXB O.8.q.e.e.e.e.4.$.{ + . o X # o.3.q.r.eXeXe.@.@.GXGXGXGXGXGXGXGXGXGXGXGXGXGXGXGXGXGXGXGXGXGX",
"GXGXGXGXGXGXGXGXGXGXGXGXGXGXGXGXGXGX{ o.o.#.....u w 8 7 $ O O o O e o.O.O.O.O.O.#.@.GXGXGXGXGXGXGXGXGXGXGXGXGXGXGXGXGXGXGXGXGXGX",
"GXGXGXGXGXGXGXGXGXGXGXGXGXGXGXGXGXGXGX| { { w w w O # 8 . 7 8 $ w 8 7 { } { } } 9 0.GXGXGXGXGXGXGXGXGXGXGXGXGXGXGXGXGXGXGXGXGXGX",
"GXGXGXGXGXGXGXGXGXGXGXGXGXGXGXGXGXGXGXGXGXGX*.{ @ X o o 7 } 8 # } { w : : % { } w.4.GXGXGXGXGXGXGXGXGXGXGXGXGXGXGXGXGXGXGXGXGXGX",
"GXGXGXGXGXGXGXGXGXGXGXGXGXGXGXGXGXGXGXGXGXGXGXf.O X o X 7 7 X o 7 o.o.o.O.2.3.3.} GXGXGXGXGXGXGXGXGXGXGXGXGXGXGXGXGXGXGXGXGXGXGX",
"GXGXGXGXGXGXGXGXGXGXGXGXGXGXGXGXGXGXGXGXGXGXj.o.w o . o o o . $ w } o.} } } } } GXGXGXGXGXGXGXGXGXGXGXGXGXGXGXGXGXGXGXGXGXGXGXGX",
"GXGXGXGXGXGXGXGXGXGXGXGXGXGXGXGXGXGXGXGXGXGXH.8.$.{ { # . o o X @ } o.} } } { { GXGXGXGXGXGXGXGXGXGXGXGXGXGXGXGXGXGXGXGXGXGXGXGX",
"GXGXGXGXGXGXGXGXGXGXGXGXGXGXGXGXGXGXGXGXGXGXj.8.8.O.O.o.} 8 X # 8 O { } } 2.4.} GXGXGXGXGXGXGXGXGXGXGXGXGXGXGXGXGXGXGXGXGXGXGXGX",
"GXGXGXGXGXGXGXGXGXGXGXGXGXGXGXGXGXGXGXGXGXGXj.8.q.3.<.o.o.8 X X 0 o.o.O.4.4.-.GXGXGXGXGXGXGXGXGXGXGXGXGXGXGXGXGXGXGXGXGXGXGXGXGX",
"GXGXGXGXGXGXGXGXGXGXGXGXGXGXGXGXGXGXGXGXGXGXj.4.4.$.$.o.} 8 O 7 7 w q e o.$. .GXGXGXGXGXGXGXGXGXGXGXGXGXGXGXGXGXGXGXGXGXGXGXGXGX",
"GXGXGXGXGXGXGXGXGXGXGXGXGXGXGXGXGXGXGXGXGXGXp.} } } } { } 7 7 { e w w e { { o.} GXGXGXGXGXGXGXGXGXGXGXGXGXGXGXGXGXGXGXGXGXGXGXGX",
"GXGXGXGXGXGXGXGXGXGXGXGXGXGXGXGXGXGXGXGXGXGXGXv   o o o   GXGX| } o.O.2.4.e.7.$.GXGXGXGXGXGXGXGXGXGXGXGXGXGXGXGXGXGXGXGXGXGXGXGX",
"GXGXGXGXGXGXGXGXGXGXGXGXGXGXGXGXGXGXGXGXGXGXGXGXGXGXGXGXGXGXGX{ { o.O.O.O.q.3.} GXGXGXGXGXGXGXGXGXGXGXGXGXGXGXGXGXGXGXGXGXGXGXGX",
"GXGXGXGXGXGXGXGXGXGXGXGXGXGXGXGXGXGXGXGXGXGXGXGXGXGXGXGXGXGXGXGX{ { } { { o. .GXGXGXGXGXGXGXGXGXGXGXGXGXGXGXGXGXGXGXGXGXGXGXGXGX",
"GXGXGXGXGXGXGXGXGXGXGXGXGXGXGXGXGXGXGXGXGXGXGXGXGXGXGXGXGXGXGXGXGXGXGXGXGXGXGXGXGXGXGXGXGXGXGXGXGXGXGXGXGXGXGXGXGXGXGXGXGXGXGXGX"
};
