/* XPM */
static char *_caae65364b84ebcc343133cbd7d92e7[] = {
/* columns rows colors chars-per-pixel */
"64 64 256 2 ",
"   c #030003",
".  c #02060B",
"X  c #050B0C",
"o  c #0B0B0B",
"O  c #0B0806",
"+  c #1C0707",
"@  c #120A0A",
"#  c #1A0E0E",
"$  c #0D1402",
"%  c #0E1C04",
"&  c #0E1209",
"*  c #161E05",
"=  c #191F06",
"-  c #1E160A",
";  c #161D0A",
":  c #1A1D0D",
">  c #111306",
",  c #0E0913",
"<  c #150D16",
"1  c #0C1314",
"2  c #0F1718",
"3  c #141313",
"4  c #1D151D",
"5  c #131A1B",
"6  c #1B1B1B",
"7  c #1A1412",
"8  c #240505",
"9  c #2C0404",
"0  c #250A0A",
"q  c #280D0B",
"w  c #330203",
"e  c #3C0101",
"r  c #350A08",
"t  c #21160A",
"y  c #251C0C",
"u  c #2A1509",
"i  c #341D0C",
"p  c #34170B",
"a  c #221C1B",
"s  c #281817",
"d  c #351716",
"f  c #182105",
"g  c #1C250A",
"h  c #1C280B",
"j  c #1B2211",
"k  c #1D221D",
"l  c #2A220E",
"z  c #232A0E",
"x  c #27240E",
"c  c #252314",
"v  c #2C2413",
"b  c #252D11",
"n  c #22221C",
"m  c #2D2617",
"M  c #332412",
"N  c #3D2213",
"B  c #342A13",
"V  c #3C2E16",
"C  c #3B2B1A",
"Z  c #34281A",
"A  c #2C341B",
"S  c #283214",
"D  c #37381A",
"F  c #31250E",
"G  c #141A20",
"H  c #251A27",
"J  c #132020",
"K  c #1D2525",
"L  c #1C232C",
"P  c #1E2927",
"I  c #242424",
"U  c #2A2524",
"Y  c #272827",
"T  c #262728",
"R  c #2A2629",
"E  c #242A2B",
"W  c #2C2C2C",
"Q  c #2B2927",
"!  c #332D2D",
"~  c #323B21",
"^  c #31302F",
"/  c #3D3425",
"(  c #2F2F30",
")  c #282731",
"_  c #342932",
"`  c #263133",
"'  c #333333",
"]  c #3B3B3B",
"[  c #383A36",
"{  c #440101",
"}  c #4C0000",
"|  c #450904",
" . c #4B0B06",
".. c #46080C",
"X. c #530303",
"o. c #5C0506",
"O. c #570B04",
"+. c #5C0906",
"@. c #540408",
"#. c #540A0A",
"$. c #5C0B09",
"%. c #491807",
"&. c #50100B",
"*. c #491616",
"=. c #520814",
"-. c #630405",
";. c #6A0104",
":. c #64040A",
">. c #630A0A",
",. c #6B0D0D",
"<. c #6B0906",
"1. c #750405",
"2. c #691E01",
"3. c #691308",
"4. c #6E1111",
"5. c #671616",
"6. c #741515",
"7. c #791516",
"8. c #741815",
"9. c #771A19",
"0. c #7D1A1A",
"q. c #73100F",
"w. c #412312",
"e. c #422D15",
"r. c #4C2C13",
"t. c #4B2D19",
"y. c #432E19",
"u. c #463215",
"i. c #453319",
"p. c #4A361B",
"a. c #4C3B1C",
"s. c #463718",
"d. c #54341A",
"f. c #59351A",
"g. c #533D1D",
"h. c #5A3519",
"j. c #4F290D",
"k. c #632602",
"l. c #6D2A01",
"z. c #602B08",
"x. c #692802",
"c. c #732A00",
"v. c #7B2E00",
"b. c #702500",
"n. c #7D3803",
"m. c #62381E",
"M. c #5D3D22",
"N. c #4A3424",
"B. c #643C21",
"V. c #6B3B23",
"C. c #793A27",
"Z. c #36491E",
"A. c #274326",
"S. c #3B4925",
"D. c #385135",
"F. c #255526",
"G. c #396733",
"H. c #3F7137",
"J. c #366E2F",
"K. c #4A421A",
"L. c #68461A",
"P. c #704711",
"I. c #484727",
"U. c #534320",
"Y. c #5D4223",
"T. c #5D4B24",
"R. c #4D5C25",
"E. c #495425",
"W. c #575A28",
"Q. c #454037",
"!. c #5E4A39",
"~. c #634424",
"^. c #6A4626",
"/. c #6B4927",
"(. c #6E4B29",
"). c #654828",
"_. c #744C2A",
"`. c #794B28",
"'. c #75502C",
"]. c #7C522D",
"[. c #7D5425",
"{. c #664F3C",
"}. c #735F34",
"|. c #456E2E",
" X c #4B6529",
".X c #59642C",
"XX c #536428",
"oX c #497735",
"OX c #677C29",
"+X c #7B6436",
"@X c #3D3F41",
"#X c #3E4245",
"$X c #454544",
"%X c #4D4D4D",
"&X c #40444A",
"*X c #524D47",
"=X c #464B51",
"-X c #575158",
";X c #5B5B5B",
":X c #5A515B",
">X c #477B42",
",X c #5F615E",
"<X c #686868",
"1X c #821D1D",
"2X c #A60000",
"3X c #B30201",
"4X c #822B00",
"5X c #863A02",
"6X c #80211D",
"7X c #95320C",
"8X c #8C2524",
"9X c #942F2E",
"0X c #874207",
"qX c #894407",
"wX c #8C490A",
"eX c #8A4609",
"rX c #924D0C",
"tX c #934A08",
"yX c #94520F",
"uX c #865215",
"iX c #9B5710",
"pX c #9A5A12",
"aX c #925411",
"sX c #884910",
"dX c #A8590E",
"fX c #A15B12",
"gX c #876A1D",
"hX c #9E6214",
"jX c #936A1E",
"kX c #A36416",
"lX c #AE6213",
"zX c #A76C18",
"xX c #A9721B",
"cX c #AE7A1E",
"vX c #A7741E",
"bX c #B77A1B",
"nX c #81542F",
"mX c #855632",
"MX c #865933",
"NX c #8B5C35",
"BX c #8E5132",
"VX c #925A36",
"CX c #804527",
"ZX c #9F7122",
"AX c #936138",
"SX c #99623A",
"DX c #8B6A2F",
"FX c #AE7C20",
"GX c #538337",
"HX c #54903B",
"JX c #6B823C",
"KX c green",
"LX c #578651",
"PX c #52AD46",
"IX c #B9831C",
"UX c #B48322",
/* pixels */
"KXKXKXKXKXKXKXKXKXKXKXKXKXKXKXKXKXKXKXKXKXKXKXKXKXKXGXB.B.)./.^.^.~.h.T.KXKXKXKXKXKXKXKXKXKXKXKXKXKXKXKXKXKXKXKXKXKXKXKXKXKXKXKX",
"KXKXKXKXKXKXKXKXKXKXKXKXKXKXKXKXKXKXKXKXKXKXKXKXKX.XB.].nXmXmXMXMXnX].`.V.GXKXKXKXKXKXKXKXKXKXKXKXKXKXKXKXKXKXKXKXKXKXKXKXKXKXKX",
"KXKXKXKXKXKXKXKXKXKXKXKXKXKXKXKXKXKXKXKXKXKXKXKXT.V._.].mXMXAXSXAXMXmX].(.m..XKXKXKXKXKXKXKXKXKXKXKXKXKXKXKXKXKXKXKXKXKXKXKXKXKX",
"KXKXKXKXKXKXKXKXKXKXKXKXKXKXKXKXKXKXKXKXKXKXKXKXs.V.].'.^._.].].].^.^.].].d.R.KXKXKXKXKXKXKXKXKXKXKXKXKXKXKXKXKXKXKXKXKXKXKXKXKX",
"KXKXKXKXKXKXKXKXKXKXKXKXKXKXKXKXKXKXKXKXKXKXKXKXI.d.'.mX~.~.^.Y.^.~.(.mX).d.XXKXKXKXKXKXKXKXKXKXKXKXKXKXKXKXKXKXKXKXKXKXKXKXKXKX",
"KXKXKXKXKXKXKXKXKXKXKXKXKXKXKXKXKXKXKXKXKXKXGXf.~.v N.AXnXVXVX'.SXMXMXNXM i.B.U.KXKXKXKXKXKXKXKXKXKXKXKXKXKXKXKXKXKXKXKXKXKXKXKX",
"KXKXKXKXKXKXKXKXKXKXKXKXKXKXKXKXKXKXKXKXKXKXoXi.`.}.7X2Xi D M.a.g.A +.3X`.+XV./ KXKXKXKXKXKXKXKXKXKXKXKXKXKXKXKXKXKXKXKXKXKXKXKX",
"KXKXKXKXKXKXKXKXKXKXKXKXKXKXKXKXKXKXKXKXKXKXGXf.~.MXSXNX].MXAXSXAXnXnXAXVX].M.U.KXKXKXKXKXKXKXKXKXKXKXKXKXKXKXKXKXKXKXKXKXKXKXKX",
"KXKXKXKXKXKXKXKXKXKXKXKXKXKXKXKXKXKXKXKXKXKX>XR s.g.(.].~.a.i.V s.g.(.].~.g.C ' KXKXKXKXKXKXKXKXKXKXKXKXKXKXKXKXKXKXKXKXKXKXKXKX",
"KXKXKXKXKXKXKXKXKXKXKXKXKXKXKXKXKXKXKXKXKXKX>X^ p.s.C.9XV r { { { u f.9XM.U.N J KXKXKXKXKXKXKXKXKXKXKXKXKXKXKXKXKXKXKXKXKXKXKXKX",
"KXKXKXKXKXKXKXKXKXKXKXKXKXKXKXKXKXKXKXKXKXd.X.&.y.U.C.1X{ 1.3X3X2XX.$.8X~.a.Z 5 6 6 < n KXKXKXKXKXKXKXKXKXKXKXKXKXKXKXKXKXKXKXKX",
"KXKXKXKXKXKXKXKXKXKX.X-.o.$.-.o.$.-.o.o.o.-.X.{ { e.V.7.{ ;.1.X.1XX.@.6XM.%.w T I I K I $.-.o.-.-.$.-.o.KXKXKXKXKXKXKXKXKXKXKXKX",
"KXKXKXKXKXKXKXKXKXKXXX-.-.$.-.$.-.o.>.o.+.-.X.{ { u.V.7.{ ;.1.X.1.o.@.6XM.%.r I I I K I #.-.o.$.o.$.-.$.KXKXKXKXKXKXKXKXKXKXKXKX",
"KXKXKXKXKXKXKXHXo.o.o.$.6.7.0.0.0.1X0.6.6.,.} { o.X.>.6.{ o.o.e o.9 p q.@.s 6 I ( ! ( ! 8.7.6.1X0.0.4.o.O.o.h.KXKXKXKXKXKXKXKXKX",
"KXKXKXKXKXKXW.-.4.6.0.0.-.@.4.1X1X6.4.,.,.4.>.>.6.7.,...t r } e t ; p X.{ q K I ( ^ E U 5.,.4.1X1X>.>.1X1X0.;.$.HXKXKXKXKXKXKXKX",
"KXKXKXKXKXj.X.,.4.6.6.6.4.,.>.o.>.,.>.o.{ X.4.1X0.0.0.7.,.q X X O | q.6.<.d L U I U K 6 X.-.>.>.o.>.6.1X7.7.4.o.X.R.KXKXKXKXKXKX",
"KXKXKXKXKXj.X.>.q.6.6.9.4.,.>.X.} o.X.{ o.>.6.1X0.0.0.9.6.,.r o  .,.1X6.a 5 I I 6 5 s o.{ { { } o.>.4.9.q.6.4.o.X.R.KXKXKXKXKXKX",
"KXKXKXKXKXj.X.>.q.4.6.6.,.,.,.X.X.} { { o.o.>.,.4.,.,.,.4.$.{ { @.:.&.5 6 6 6 6 7 X 0 -.X.{ } X.X.,.4.6.6.q.4.-.X.R.KXKXKXKXKXKX",
"KXKXKXKXKXw.e { } X.} } } } X.X.{ @ 0 -.o.$.o.$.o.o.o.+.-.o.{ { X.s 2 3 3 3 3 1 X 9 { { { { { { } X.X.} } } { { { R.KXKXKXKXKXKX",
"KXKXKXKXKXZ.u V V p.p.C B B v l t o 8 X.} } X.X.#.#.X.#.@.| { { a 3 3 3 o O X @ { { { { @ O & t y B i.p.g.Y.~.M.t.oXKXKXKXKXKXKX",
"KXKXKXKXB e.g.g.g.g.a.s.V V V y - 7 o @ { { { { { X.o. .z z c 6 3 o o o o X + { { { w o o o o - l V g.Y.^._._.^.~.d.W.KXKXKXKXKX",
"KXKXKXKXV p.Y.~.~.U.g.s.B B F l - 3 , o o o o o o . 7 ~ S.I.~ g o o o o o @ o o o o o o X O @ - - v p.~.^.(.].nX].B.E.KXKXKXKXKX",
"KXKX|.i p.Y.Y.Y.g.a.s.V l l y # 3 1 0 { { { { { 6 j A A b j ~ S.3   X @ { } e { { X.w o &   A.PXS + V p.~._.'.nX].'.B.g.KXKXKXKX",
"KXKX|.w.g.U.a.s.V y.B l l l c 6 3 3 1 @ { X.r 5 o > h z z z b h X w o.} { { { { { { { { @ . p c.i ; B a.M.~.(.nXnX'.B.g.KXKXKXKX",
"KXr.{ s.p.i.B V V F m T I K I I Y n 2 # e s 2 o O O & ; z b j O o 9 X.o.,.>.o.X.{ X.w o x.v.l.c.c.j.c y.N.M.[.cXFXUXxXpXKXKXKXKX",
"KXr.X.>.o.X.{ e l x m E ' [ ( ( ^ Y I 6 6 , O @ o o o o o o o o O @ X @  .,.6.,.,.$.o.X.! ` y.c.c.c.x.a.B.jXIXcXnX'.NXVXBXJXKXKX",
"KXr.o.+.} { { X.{ s E ^ ' ] ' ( ( I 3 O o o o o o o o o o o o o o o o o % f ; ; * * * ; ; = % g x.4Xz.p.uXbXZX_.nXnX`.'.NXVX+XKX",
"KXZ.N a.p.u.V m T W ^ ] ] ] ] ' 6 o O o o o o o o o o o - - y l m B a.a.* * b z z z z * % $ % x x.4Xz.p.uXlXuXg.~.~.g.^.'.BXDXKX",
"KXZ.w././.~.d.Z E I I R R T R I 6 , O o o O & * : - - - - - y l l - M p.& & g z z z g * % $ $ b KXKXKXp.sXbXjXV Z g.~.Y.)._.mXVX",
"KXZ.w./.^.g./ R 3 v g.Y.] @XR 3 I I 3 O O 6 R I - - - - - y v l x v V V a 5 6 6 6 : g * % $ $ g KXKXKXKXjXdXuXV B p.p.g.)._.'.'.",
"KXZ.N g.Y.p.I.&X( p.L.).] ] ' ( ] ] 5 o 5 k 6 5 ; f * * ; f * ; f * : 6 I I I I 6 6 n ^ ! ' H k KXKXKXpXdXeXk.y.C u.g.~.g.h.W.KX",
"KXE.N a.g.Q.&X*XY.^.!.#X( W ^ ] $XE g.fXv.u 1 3 ; f g z z A ~ A b f : I I E ! ( T I k 6 6 6 4 ' KXKXKXiX5XOXKXKXKX|.t.g.t.oXKXKX",
"KXKX|.w.p.Q.=X*XY.P.{.#X^ W ' @X$XL Y.bXeXN 5 6 3 $ = z z A ~ A b f j T I 6 3 6 6 6 6 I 6 6 6 6 x P.kXiX5XOXKXKXKXKXKXKXKXKXKXKX",
"KXKX|.N p.Q.=X*XY.`.{.#X( W ' ] $XE T.bXtXM 2 6 3 $ * z g A ~ A z f j T U 3 3 6 6 6 a T 6 6 6 6 c P.kXpX5XOXKXKXKXKXKXKXKXKXKXKX",
"KXKXKXKX%X-X,X<X<X,X;X;X$X$X$X$X( L e.tXiXcXhX2.{ } r 1 ; * ; * $ n I 3 7 I T I e X.,.6.@.e O.wXcXlXgXKXKXKXKXKXKXKXKXKXKXKXKXKX",
"KXKXKXKX%X-X,X<X<X,X;X-X%X$X$X@X! L t.tXiXcXhX2.{ } r 1 ; f g % $ n K & 3 n L a | X.,.9. .e O.wXcXlXgXKXKXKXKXKXKXKXKXKXKXKXKXKX",
"KXKXLX:X%X] ' W R T ] %X;X;X;X%X( U 5 m aXbXvXaXv.u . o 6 & . @ { q J 4 { X.#.-.+.:.8.qXpXpXyX0XpX5XL.KXKXKXKXKXKXKXKXKXKXKXKXKX",
"KXKX>X_ I E [ ] ] T I ( ( T ] %X] Y G a l.tXxXxXqXyXrXx.a 2 @ o o w { { { { { #.n.pXyXqXxXUXxXpXn.r A.KXKXKXKXKXKXKXKXKXKXKXKXKX",
"KXD.H ( I ^ $X$X] ( ' ] [ ] W I ] [ d { 6 %.yXcXpXxXkX0XpXyXn.b.{ s s o.b.n.yXpX0XhXcXpXpXhXrXb.s , A.KXKXKXKXKXKXKXKXKXKXKXKXKX",
"KXD._ ] ^ 6 6 6 5 R [ ] ] ] ' H K ` *.{ O | 3.c.0XxXxXpXcXaXwXpX0XyXaX0XpXpXkXcXkXwX5Xb.+.:.| o 5 < A.KXKXKXKXKXKXKXKXKXKXKXKXKX",
"KXA., 3 6 I I U I I 7 7 6 5 k R T 1 9 { o 9 X.{ I j.4XwXcXkXhXcXpXxXxXpXcXpXn.l.4.,.4.,.>.<.| . < |.KXKXKXKXKXKXKXKXKXKXKXKXKXKX",
"KXKXG.< 6 I T I U Y K 3 6 6 I H { 7 d <.>.X.9 o o O 1 U l.3.3.l.o.2.2.-.l.3.X.o.o.o.-.>.#.#.}  .KXKXKXKXKXKXKXKXKXKXKXKXKXKXKXKX",
"KXKXKXKXR 4 3 @ 5 I R U I 4 oXKXk < n I T #.&.E R I I a { 0 2 3 o 7 6 o O X o 7 I T E U $.<.>.o.{ XXKXKXKXKXKXKXKXKXKXKXKXKXKXKX",
"KXKXKXKXKXKXH.4 H 4 G.KXKXKXKXKXk < K I R T T J 6 6 6 I 6 7 o o 6 @ o 2 I I I T ( ( ( ( I n K 4 e XXKXKXKXKXKXKXKXKXKXKXKXKXKXKX",
"KXKXKXKXKXKXKXKXKXKXKXKXKXKXKXKXKXh...K K I I I 6 6 6 6 2 o O o o X 8 { 3 r <.1X1X1X6X1X0.1X0.-.{ R.KXKXKXKXKXKXKXKXKXKXKXKXKXKX",
"KXKXKXKXKXKXKXKXKXKXKXKXKXKXKXKXKXh.X.$.4.1X8X1X0.6.4.>.X.+ X o o X + { @.>.,.6.6.9.8.6.6.6.4.@.{ XXKXKXKXKXKXKXKXKXKXKXKXKXKXKX",
"KXKXKXKXKXKXKXKXKXKXKXKXKXKXKXKXKXh.o.O.o.$.o.$.$.o.o.o.X.8 X o o o X @ e X.@.$.,.4.,.,.o.$.X.{ KXKXKXKXKXKXKXKXKXKXKXKXKXKXKXKX",
"KXKXKXKXKXKXKXKXKXKXKXKXKXKXKXKXKXm.;.#.o.o.o.o.o.o.X.e o o O @ e + + { @ O o o @ X + { { | { | KXKXKXKXKXKXKXKXKXKXKXKXKXKXKXKX",
"KXKXKXKXKXKXKXKXKXKXKXKXKXKXKXKXKXCX=.1 { { { { e { 9 @ e X.8 o e 8 X @ { + @ { { { { { { { u.KXKXKXKXKXKXKXKXKXKXKXKXKXKXKXKXKX",
"KXKXKXKXKXKXKXKXKXKXKXKXKXKXKXKXKXf.1.9.X.X.r 3 3 1 0 { { } 9 @ e } 9 X X @ o @ | { u.KXKXKXKXKXKXKXKXKXKXKXKXKXKXKXKXKXKXKXKXKX",
"KXKXKXKXKXKXKXKXKXKXKXKXKXKXKXKXKXKX X} >.,.>.>.o.o.X.X.X.8 X o X w w O o @ X @ e XXKXKXKXKXKXKXKXKXKXKXKXKXKXKXKXKXKXKXKXKXKXKX",
"KXKXKXKXKXKXKXKXKXKXKXKXKXKXKXKXKXKX X{ X.X.} X.} X.} X.} } 9 X o @ o o o o X @ @.-.f.KXKXKXKXKXKXKXKXKXKXKXKXKXKXKXKXKXKXKXKXKX",
"KXKXKXKXKXKXKXKXKXKXKXKXKXKXKXKXKXKXKXKX| { } { X.} X.} { + X o o o o o @ X + { +.o.h.KXKXKXKXKXKXKXKXKXKXKXKXKXKXKXKXKXKXKXKXKX",
"KXKXKXKXKXKXKXKXKXKXKXKXKXKXKXKXKXKXKXKX .{ } { } X.} X.{ + X o o o X @ ..>.o.o.8.q.^.KXKXKXKXKXKXKXKXKXKXKXKXKXKXKXKXKXKXKXKXKX",
"KXKXKXKXKXKXKXKXKXKXKXKXKXKXKXKXKXKXKXKX| ;.9.o.X.} X.e @ r w X X 9 X.@.o.-.$.4.9.;.f.KXKXKXKXKXKXKXKXKXKXKXKXKXKXKXKXKXKXKXKXKX",
"KXKXKXKXKXKXKXKXKXKXKXKXKXKXKXKXKXKXKXKXKXa.o.4.>.-.X.X.X.0 O X o w } @.$.o.-.,.9.;.h.KXKXKXKXKXKXKXKXKXKXKXKXKXKXKXKXKXKXKXKXKX",
"KXKXKXKXKXKXKXKXKXKXKXKXKXKXKXKXKXKXKXKXKXg.o.,.,.-.#.X.X.0 . o X w X.X.+.o.>.,.9.;.h.KXKXKXKXKXKXKXKXKXKXKXKXKXKXKXKXKXKXKXKXKX",
"KXKXKXKXKXKXKXKXKXKXKXKXKXKXKXKXKXKXKXKX| { } { { + X @ o 9 } e o 9 X.{ X.$.o.o.4.X.u.KXKXKXKXKXKXKXKXKXKXKXKXKXKXKXKXKXKXKXKXKX",
"KXKXKXKXKXKXKXKXKXKXKXKXKXKXKXKXKXKXKXKXe X.O.{ { { { { { { { e o 9 } { { { { { } { u.KXKXKXKXKXKXKXKXKXKXKXKXKXKXKXKXKXKXKXKXKX",
"KXKXKXKXKXKXKXKXKXKXKXKXKXKXKXKXKXKXKXKX$.-.8.6.,.-.o.$.X. .{ %.KXF.  o o @ @ o   J.KXKXKXKXKXKXKXKXKXKXKXKXKXKXKXKXKXKXKXKXKXKX",
"KXKXKXKXKXKXKXKXKXKXKXKXKXKXKXKXKXKXKXKX} o.8.6.,.>.>.o.#. .{ %.KXKXKXKXKXKXKXKXKXKXKXKXKXKXKXKXKXKXKXKXKXKXKXKXKXKXKXKXKXKXKXKX",
"KXKXKXKXKXKXKXKXKXKXKXKXKXKXKXKXKXKXKXKX| X.>.o.} } X.X.{ { { | KXKXKXKXKXKXKXKXKXKXKXKXKXKXKXKXKXKXKXKXKXKXKXKXKXKXKXKXKXKXKXKX",
"KXKXKXKXKXKXKXKXKXKXKXKXKXKXKXKXKXKXKXKXKXu.{ { { { { { { { a.KXKXKXKXKXKXKXKXKXKXKXKXKXKXKXKXKXKXKXKXKXKXKXKXKXKXKXKXKXKXKXKXKX",
"KXKXKXKXKXKXKXKXKXKXKXKXKXKXKXKXKXKXKXKXKXKXKXKXKXKXKXKXKXKXKXKXKXKXKXKXKXKXKXKXKXKXKXKXKXKXKXKXKXKXKXKXKXKXKXKXKXKXKXKXKXKXKXKX"
};
