/* XPM */
static char *f5eba2fdc90445e0b2ecd91a5ef11eef[] = {
/* columns rows colors chars-per-pixel */
"64 64 246 2 ",
"   c #030102",
".  c #080609",
"X  c #060B0A",
"o  c #0B0B0B",
"O  c #150707",
"+  c #1C0606",
"@  c #1E0708",
"#  c #140A0A",
"$  c #1B0B0A",
"%  c #0E1502",
"&  c #0F1800",
"*  c #0F120A",
"=  c #151806",
"-  c #161E06",
";  c #14120B",
":  c #1D150B",
">  c #151B0B",
",  c #0C0F10",
"<  c #141414",
"1  c #1B1413",
"2  c #1C1D15",
"3  c #19171A",
"4  c #161A18",
"5  c #1C1C1C",
"6  c #250404",
"7  c #2A0404",
"8  c #260E07",
"9  c #250B09",
"0  c #2C0B0C",
"q  c #340303",
"w  c #3C0302",
"e  c #370A06",
"r  c #3C0905",
"t  c #330A09",
"y  c #3A090A",
"u  c #201509",
"i  c #241C0C",
"p  c #331409",
"a  c #30190A",
"s  c #3C1D0C",
"d  c #241313",
"f  c #2B1715",
"g  c #221B1B",
"h  c #2B1C1C",
"j  c #341718",
"k  c #3A1B1B",
"l  c #192106",
"z  c #1B230A",
"x  c #0D2511",
"c  c #1C2014",
"v  c #182B18",
"b  c #173517",
"n  c #1C3A1A",
"m  c #2A220E",
"M  c #222A0E",
"N  c #27280D",
"B  c #392205",
"V  c #3D220F",
"C  c #2C2412",
"Z  c #242D12",
"A  c #262816",
"S  c #24221D",
"D  c #29241A",
"F  c #312512",
"G  c #352A13",
"H  c #3B2D15",
"J  c #392719",
"K  c #3D2B1A",
"L  c #2A3216",
"P  c #2C3419",
"I  c #383716",
"U  c #3A3C19",
"Y  c #171C20",
"T  c #1E1C20",
"R  c #201F20",
"E  c #1E2423",
"W  c #232323",
"Q  c #292625",
"!  c #26292B",
"~  c #2C2C2C",
"^  c #332E29",
"/  c #223220",
"(  c #2F3720",
")  c #353B27",
"_  c #2E2E30",
"`  c #343334",
"'  c #343836",
"]  c #37393A",
"[  c #3B3B3B",
"{  c #440101",
"}  c #4B0201",
"|  c #430D05",
" . c #4E0D04",
".. c #430C0C",
"X. c #4C0B0A",
"o. c #530404",
"O. c #5C0605",
"+. c #540A02",
"@. c #5B0A06",
"#. c #540B0B",
"$. c #5B0908",
"%. c #441208",
"&. c #481208",
"*. c #461A0C",
"=. c #4B1A09",
"-. c #551908",
";. c #5C0F10",
":. c #461414",
">. c #4C1212",
",. c #620505",
"<. c #6C0202",
"1. c #600807",
"2. c #640A0A",
"3. c #6A0D0D",
"4. c #651207",
"5. c #691C04",
"6. c #6D100F",
"7. c #71100F",
"8. c #6F0E10",
"9. c #710F10",
"0. c #661613",
"q. c #6E1111",
"w. c #6E1E16",
"e. c #731413",
"r. c #791717",
"t. c #751813",
"y. c #731C1B",
"u. c #7B1B1B",
"i. c #472209",
"p. c #4A230D",
"a. c #4B2A0C",
"s. c #572708",
"d. c #59270A",
"f. c #4B2511",
"g. c #412D15",
"h. c #5A2512",
"j. c #562915",
"k. c #413117",
"l. c #45341A",
"z. c #49351A",
"x. c #423E1C",
"c. c #4C3A1C",
"v. c #563111",
"b. c #593312",
"n. c #52351C",
"m. c #533C1D",
"M. c #593C1E",
"N. c #6A2402",
"B. c #622804",
"V. c #6A2B03",
"C. c #662B09",
"Z. c #732C03",
"A. c #7A2A07",
"S. c #7A3302",
"D. c #783706",
"F. c #7C390A",
"G. c #692F11",
"H. c #72291D",
"J. c #693C10",
"K. c #463B27",
"L. c #5B3E22",
"P. c #7F2922",
"I. c #643C21",
"U. c #6C3E24",
"Y. c #7D3828",
"T. c #3E460C",
"R. c #2C4610",
"E. c #3D660E",
"W. c #366518",
"Q. c #4D481D",
"!. c #54401D",
"~. c #4A541B",
"^. c #515B1F",
"/. c #6D451E",
"(. c #784A14",
"). c #775219",
"_. c #48651A",
"`. c #6D7B13",
"'. c #4D4125",
"]. c #574221",
"[. c #5B4121",
"{. c #594E21",
"}. c #5A462F",
"|. c #4D5A25",
" X c #5E5529",
".X c #575A28",
"XX c #45413B",
"oX c #5B4A3C",
"OX c #46573D",
"+X c #644424",
"@X c #6A4525",
"#X c #6E4928",
"$X c #724925",
"%X c #744D2A",
"&X c #7A4E2B",
"*X c #7B522D",
"=X c #516728",
"-X c #657E28",
";X c #7C6937",
":X c #413F41",
">X c #444444",
",X c #4B4B4C",
"<X c #4A5A49",
"1X c #544F52",
"2X c #545354",
"3X c #5A5654",
"4X c #5C5C5B",
"5X c #625A52",
"6X c #65625D",
"7X c gray39",
"8X c #9E0000",
"9X c #9D1A0E",
"0X c #811C1C",
"qX c #A40000",
"wX c #9E2413",
"eX c #874307",
"rX c #85450B",
"tX c #894608",
"yX c #8D4C0C",
"uX c #914104",
"iX c #904F0C",
"pX c #93520E",
"aX c #8B5D18",
"sX c #9C5C13",
"dX c #985C16",
"fX c #AF5E0F",
"gX c #A05D12",
"hX c #9E6215",
"jX c #986819",
"kX c #A16415",
"lX c #A66E19",
"zX c #B36E14",
"xX c #A8731B",
"cX c #B87B1A",
"vX c #845924",
"bX c #80542F",
"nX c #845631",
"mX c #8B5532",
"MX c #845A33",
"NX c #8C5A34",
"BX c #8B6020",
"VX c #936523",
"CX c #9F7122",
"ZX c #A37022",
"AX c green",
"SX c #B5801C",
/* pixels */
"AXAXAXAXAXAXAXAXAXAXAXAXAXAXAXAXAXAXAXAXAXAXAXAXAXAXAXAXAXAXAXAXAXAXAXAXAXAXAXAXAXAXAXAXAXAXAXAXAXAXAXAXAXAXAXAXAXAXAXAXAXAXAXAX",
"AXAXAXAXAXAXAXAXAXAXAXAXAXAXAXAXAXAXAXAXAXAXAXAXAXAXAXAXAXAXAXAXAXAXAXAXAXAXAXAXAXAXAXAXAXAXAXAXAXAXAXAXAXAXAXAXAXAXAXAXAXAXAXAX",
"AXAXAXAXAXAXAXAXAXAXAXAXAXAXAXAXAXAXAXAXAXAXAXAXAXAXAXAXAXAXAXAXAXAXAXAXAXAXAXAXAXAXAXAXAXAXAXAXAXAXAXAXAXAXAXAXAXAXAXAXAXAXAXAX",
"AXAXAXAXAXAXAXAXAXAXAXAXAXAXAXAXAXAXAXAXAXAXAXAXAXAXAXAXAXAXAXAXAXAXAXAXAXAXAXAXAXAXAXAXAXAXAXAXAXAXAXAXAXAXAXAXAXAXAXAXAXAXAXAX",
"AXAXAXAXAXAXAXAXAXAXAXAXAXAXAXAXAXAXAXAXAXAXAXAXAXAXAXAXAXAXAXAXAXAXAXAXAXAXAXAXAXAXAXAXAXAXAXAXAXAXAXAXAXAXAXAXAXAXAXAXAXAXAXAX",
"AXAXAXAXAXAXAXAXAXAXAXAXAXAXAXAXAXAXAXAXAXAXAXAXAXAXAXAXAXAXAXAXAXAXAXAXAXAXAXAXAXAXAXAXAXAXAXAXAXAXAXAXAXAXAXAXAXAXAXAXAXAXAXAX",
"AXAXAXAXAXAXAXAXAXAXAXAXAXAXAXAXAXAXAXAXAXAXAXAXAXAXAXAXAXAXAXAXAXAXAXAXAXAXAXAXAXAXAXAXAXAXAXAXAXAXAXAXAXAXAXAXAXAXAXAXAXAXAXAX",
"AXAXAXAXAXAXAXAXAXAXAXAXAXAXAXAXAXAXAXAXAXAXAXAXAXAXAXAXAXAXAXAXAXAXAXAXAXAXAXAXAXAXAXAXAXAXAXAXAXAXAXAXAXAXAXAXAXAXAXAXAXAXAXAX",
"AXAXAXAXAXAXAXAXAXAXAXAXAXAXAXAXAXAXAXAXAXAXAXAXAXAXAXAXAXAXAXAXAXAXAXAXAXAXAXAXAXAXAXAXAXAXAXAXAXAXAXAXAXAXAXAXAXAXAXAXAXAXAXAX",
"AXAXAXAXAXAXAXAXAXAXAXAXAXAXAXAXAXAXAXAXAXAXAXAXAXAXAXAXAXAXAXAXAXAXAXAXAXAXAXAXAXAXAXAXAXAXAXAXAXAXAXAXAXAXAXAXAXAXAXAXAXAXAXAX",
"AXAXAXAXAXAXAXAXAXAXAXAXAXAXAXAXAXAXAXAXAXAXAXAXAXAXAXAXAXAXAXAXAXAXAXAXAXAXAXAXAXAXAXAXAXAXAXAXAXAXAXAXAXAXAXAXAXAXAXAXAXAXAXAX",
"AXAXAXAXAXAXAXAXAXAXAXAXAXAXAXAXAXAXAXAXAXAXAXAXAXAXAXAXAXAXAXAXAXAXAXAXAXAXAXAXAXAXAXAXAXAXAXAXAXAXAXAXAXAXAXAXAXAXAXAXAXAXAXAX",
"AXAXAXAXAXAXAXAXAXAXAXAXAXAXAXAXAXAXAXAXAXAXAXAXAXAXAXAXAXAXAXAXAXAXAXAXAXAXAXAXAXAXAXAXAXAXAXAXAXAXAXAXAXAXAXAXAXAXAXAXAXAXAXAX",
"AXAXAXAXAXAXAXAXAXAXAXAXAXAXAXAXAXAXAXAXAXAXAXAXAXAXAXAXAX XI.#X#X#X+XI.AXAXAXAXAXAXAXAXAXAXAXAXAXAXAXAXAXAXAXAXAXAXAXAXAXAXAXAX",
"AXAXAXAXAXAXAXAXAXAXAXAXAXAXAXAXAXAXAXAXAXAXAXAXAXAXAXAX X#X*XMXMXmXnX*X#X=XAXAXAXAXAXAXAXAXAXAXAXAXAXAXAXAXAXAXAXAXAXAXAXAXAXAX",
"AXAXAXAXAXAXAXAXAXAXAXAXAXAXAXAXAXAXAXAXAXAXAXAXAXAXAX].@X*X*X*XNXNX*X*X&XI..XAXAXAXAXAXAXAXAXAXAXAXAXAXAXAXAXAXAXAXAXAXAXAXAXAX",
"AXAXAXAXAXAXAXAXAXAXAXAXAXAXAXAXAXAXAXAXAXAXAXAXAXAXAXc.I.*X@X@X#X#X@X#X&XL.|.AXAXAXAXAXAXAXAXAXAXAXAXAXAXAXAXAXAXAXAXAXAXAXAXAX",
"AXAXAXAXAXAXAXAXAXAXAXAXAXAXAXAXAXAXAXAXAXAXAXAXAXAX_.L.H %X*XNXbXnXnXnX@Xk.[.AXAXAXAXAXAXAXAXAXAXAXAXAXAXAXAXAXAXAXAXAXAXAXAXAX",
"AXAXAXAXAXAXAXAXAXAXAXAXAXAXAXAXAXAXAXAXAXAXAXAXAXAXc.&X*X9X=.x.M.M.( 4.wX*XU.AXAXAXAXAXAXAXAXAXAXAXAXAXAXAXAXAXAXAXAXAXAXAXAXAX",
"AXAXAXAXAXAXAXAXAXAXAXAXAXAXAXAXAXAXAXAXAXAXAXAXAXAXK.M.*XMX&X%X*X%X%X*XMX&Xn.AXAXAXAXAXAXAXAXAXAXAXAXAXAXAXAXAXAXAXAXAXAXAXAXAX",
"AXAXAXAXAXAXAXAXAXAXAXAXAXAXAXAXAXAXAXAXAXAXAXAXAXAX' z.].Y.n.*.%.%.V I.Y.!.J AXAXAXAXAXAXAXAXAXAXAXAXAXAXAXAXAXAXAXAXAXAXAXAXAX",
"AXAXAXAXAXAXAXAXAXAXAXAXAXAXAXAXAXAXAXAXAXAXAXAXAXa.X.l.[.P.X.<.qX8XO.;.Y.m.J 4 b v b AXAXAXAXAXAXAXAXAXAXAXAXAXAXAXAXAXAXAXAXAX",
"AXAXAXAXAXAXAXAXAXAXAXAXAXAXAXAX{.,.O.1.1.$.O.1.O.O.{ { n.w.} <.<.<.o.o.H.f.y E W E W O.1.1.1.$.2.AXAXAXAXAXAXAXAXAXAXAXAXAXAXAX",
"AXAXAXAXAXAXAXAXAXAXAXAXAXAXAXAXb.1.3.3.3.8.3.2.2.O.} } h.w.} ,.O.1.} X.w.*.0 W Q ! Q 2.3.3.3.3.1.AXAXAXAXAXAXAXAXAXAXAXAXAXAXAX",
"AXAXAXAXAXAXAXAXAXAXAXAXAX_.0.6.q.3.2.q.0Xr.e.3.3.2.O.3.3.2.t w } r u p O.t 5 W _ ~ ! 0.9.r.0X3.8.t.7.d.AXAXAXAXAXAXAXAXAXAXAXAX",
"AXAXAXAXAXAXAXAXAXAXAXAXa.O.6.7.r.8.3.2.1.2.3.O.} ,.r.u.r.r.3.9 o o t 7.8.>.E Q Q W 3 O.,.2.O.2.r.r.r.2.o.~.AXAXAXAXAXAXAXAXAXAX",
"AXAXAXAXAXAXAXAXAXAXAXAXp.O.6.q.r.q.3.3.o.o.o.{ O.3.r.r.r.t.e.2.6 q 3.e.:.5 E T 4 d O.{ { } O.2.r.q.e.3.o.Q.AXAXAXAXAXAXAXAXAXAX",
"AXAXAXAXAXAXAXAXAXAXAXAXp.o.$.2.2.2.$.$.} { q o.O.O.2.2.2.2.2.@.{ } X.j 4 3 < < o 7 o.} { } o.O.2.2.2.$.} Q.AXAXAXAXAXAXAXAXAXAX",
"AXAXAXAXAXAXAXAXAXAXAXAXI p V f.p.s V s p $ + O.o.o.o.o.o.$.@.} { t 3 , , o , # q { { + + 8 a *.f.f.j.n.f.|.AXAXAXAXAXAXAXAXAXAX",
"AXAXAXAXAXAXAXAXAXAXAXR.g.m.!.m.c.K H G i : , O w { { { o.#.m M g 1 o o o X + { { q . o o : i H m.+X%X%XU.M.=XAXAXAXAXAXAXAXAXAX",
"AXAXAXAXAXAXAXAXAXAXAXU n.[.[.m.c.H C F i < ; + O + O o * P ) ) P > . o o + O O + O o X o Z z F n.+X$X&X*X@X|.AXAXAXAXAXAXAXAXAX",
"AXAXAXAXAXAXAXAXAXAXU z.].m.c.z.H C m i < * ; 7 { { 0 < > Z Z z P c + 7 w { w { { w 6 o > ^.F i k.L.@X&X*X&XI.AXAXAXAXAXAXAXAXAX",
"AXAXAXAXAXAXAXAXAXT.g.z.l.H H G D S S S E 5 < ; w d # . * > M Z > o 6 o.O.$.o.} { w + -.B.V.N.B G c.L.vXZXCXVXAXAXAXAXAXAXAXAXAX",
"AXAXAXAXAXAXAXAXAX-.O.O.o.{ a m D _ ' ` _ ~ W 3 < o o o o o . o , o o X 6 2.q.3.2.O.O.~ ^ B.Z.Z.v.L.VXSXVX&XNXNX;XAXAXAXAXAXAXAX",
"AXAXAXAXAXAXAXAXAXf.-. .| | r h _ ` ] ` _ S < . o o o o o . o * * ; ; : > - z z l l - - - l B.A.v.(.zXBX%X&X@X*XmX;XAXAXAXAXAXAX",
"AXAXAXAXAXAXAXAXAXU n.].n.H Q Q ~ _ _ _ Q < o o o o * ; ; ; : : i m m g.G * z M M M - & % z AXAXE.(.zX).z.m.].@X&XMXAXAXAXAXAXAX",
"AXAXAXAXAXAXAXAXAXU M.@Xn.^ 2 D z.K.' W 3 T , o o 5 S : : : i i m C N G F < 5 2 2 l - & % z AXAXAX`.fX(.G l.m.L.#X&X*XAXAXAXAXAX",
"AXAXAXAXAXAXAXAXAXU l.[.c.XX' l.+X}.] ` ` ] Q o 3 5 2 - - - - - - - - > 5 W W W 5 5 _ _ ! 5 AXAXAXsXeXs.I H c.[.m..XAXAXAXAXAXAX",
"AXAXAXAXAXAXAXAXAXW.z.c.[ ,X}./.oX] ~ _ [ ' K.kXV.1 < = - z M L ( A l c W W Q Q W 5 5 5 3 Q AXAXAXuX-XAXAXAXAXAXAXAXAXAXAXAXAXAX",
"AXAXAXAXAXAXAXAXAXAXx.z.XX,X}.$XoX] ~ ` XX' '.cXD.g 4 < % z M L ( L l c Q 5 < 5 5 5 Q 5 3 3 N (.gXuX-XAXAXAXAXAXAXAXAXAXAXAXAXAX",
"AXAXAXAXAXAXAXAXAXAXAXOX1X4X6X5X3X,X>X>X[ ! K pXdXaXB.w r : - z z - 2 5 < 5 R g | #.0...r C.jXhXAXAXAXAXAXAXAXAXAXAXAXAXAXAXAXAX",
"AXAXAXAXAXAXAXAXAXAXAX<X2X4X7X3X2X1X>X>X[ Q K tXsXlXZ.} w $ - - - % 2 E < g W f } 2.t.} +.F.xXhXAXAXAXAXAXAXAXAXAXAXAXAXAXAXAXAX",
"AXAXAXAXAXAXAXAXAXAX<X:X' ` ~ Q ' >X,X,X>X~ Y h yXlXhXD.i.a 1 < X 6 0 d 0 } o.1.5.A.tXhXkXiXiXC.AXAXAXAXAXAXAXAXAXAXAXAXAXAXAXAX",
"AXAXAXAXAXAXAXAXAXAX` W ` [ [ ~ _ ' ` ` ` ] D t a.rXxXpXhXrXJ.b.i.e 9 y +.5.Z.F.yXkXpXhXkXeXa.3 AXAXAXAXAXAXAXAXAXAXAXAXAXAXAXAX",
"AXAXAXAXAXAXAXAXAX' ' _ E T g ! ' [ [ _ R ~ k w $ @.S.eXlXhXlXpXyXeXrXrXrXpXhXlXdXtXZ.4.4.8 4 3 AXAXAXAXAXAXAXAXAXAXAXAXAXAXAXAX",
"AXAXAXAXAXAXAXAXAXn < 1 W Q Q R < < 3 T Q 5 6 { + w { R s.F.kXsXhXsXkXkXdXdXS.5.3.3.3.O.O.@ x AXAXAXAXAXAXAXAXAXAXAXAXAXAXAXAXAX",
"AXAXAXAXAXAXAXAXAXAXAXE R 5 R W W 5 5 AXAX0 h >.>.| < < < R -. .&.&.=.=.%.&.r ..>.>.>.$.O.o.AXAXAXAXAXAXAXAXAXAXAXAXAXAXAXAXAXAX",
"AXAXAXAXAXAXAXAXAXAXAXAXAX/ 5 T AXAXAXAXAX3 5 W Q k W 5 5 S d 1 , , , * < 3 3 E ! ~ ! k j j { AXAXAXAXAXAXAXAXAXAXAXAXAXAXAXAXAX",
"AXAXAXAXAXAXAXAXAXAXAXAXAXAXAXAXAXAXAXAXAXAX..E W W W 3 3 3 < o o o X 6 0 9 2.y.u.u.u.y.y.2.} AXAXAXAXAXAXAXAXAXAXAXAXAXAXAXAXAX",
"AXAXAXAXAXAXAXAXAXAXAXAXAXAXAXAXAXAXAXAXAXAX-.@.q.0X0Xr.3.2.o.6 X o X + { $.3.8.y.t.y.q.6.O.B AXAXAXAXAXAXAXAXAXAXAXAXAXAXAXAXAX",
"AXAXAXAXAXAXAXAXAXAXAXAXAXAXAXAXAXAXAXAXAXAX$.@.o.$.$.O.O.o.w O X O O O 6 q t r ....o.o.} { AXAXAXAXAXAXAXAXAXAXAXAXAXAXAXAXAXAX",
"AXAXAXAXAXAXAXAXAXAXAXAXAXAXAXAXAXAXAXAXAXAX;.0 } } } } { 6 7 q O q 6 . 6 @ O q q q { { %.AXAXAXAXAXAXAXAXAXAXAXAXAXAXAXAXAXAXAX",
"AXAXAXAXAXAXAXAXAXAXAXAXAXAXAXAXAXAXAXAXAXAX3.y.} { $ < ; q { } + 7 { 6 . o X + w *.AXAXAXAXAXAXAXAXAXAXAXAXAXAXAXAXAXAXAXAXAXAX",
"AXAXAXAXAXAXAXAXAXAXAXAXAXAXAXAXAXAXAXAXAXAXAX} 2.2.1.O.O.o.} 7 o X 6 7 X o X O p.AXAXAXAXAXAXAXAXAXAXAXAXAXAXAXAXAXAXAXAXAXAXAX",
"AXAXAXAXAXAXAXAXAXAXAXAXAXAXAXAXAXAXAXAXAXAXAXAX} } } } } } } q O X o o o o . q O.j.AXAXAXAXAXAXAXAXAXAXAXAXAXAXAXAXAXAXAXAXAXAX",
"AXAXAXAXAXAXAXAXAXAXAXAXAXAXAXAXAXAXAXAXAXAXAXAX{ { { o.} o.} + X o o . @ ..{ O.8.G.AXAXAXAXAXAXAXAXAXAXAXAXAXAXAXAXAXAXAXAXAXAX",
"AXAXAXAXAXAXAXAXAXAXAXAXAXAXAXAXAXAXAXAXAXAXAXAX} 3.2.} } { O 7 6 X 7 } o.O.1.8.8.h.AXAXAXAXAXAXAXAXAXAXAXAXAXAXAXAXAXAXAXAXAXAX",
"AXAXAXAXAXAXAXAXAXAXAXAXAXAXAXAXAXAXAXAXAXAXAXAXAX-.3.2.1.o.o.9 X X 7 o.O.O.2.q.3.h.AXAXAXAXAXAXAXAXAXAXAXAXAXAXAXAXAXAXAXAXAXAX",
"AXAXAXAXAXAXAXAXAXAXAXAXAXAXAXAXAXAXAXAXAXAXAXAXAX .O.o.r t t 6 6 O 6 } o.O.O.2.3.h.AXAXAXAXAXAXAXAXAXAXAXAXAXAXAXAXAXAXAXAXAXAX",
"AXAXAXAXAXAXAXAXAXAXAXAXAXAXAXAXAXAXAXAXAXAXAXAX{ o.{ { w q q w { + 6 } { } } } } p.AXAXAXAXAXAXAXAXAXAXAXAXAXAXAXAXAXAXAXAXAXAX",
"AXAXAXAXAXAXAXAXAXAXAXAXAXAXAXAXAXAXAXAXAXAXAXAX$.3.t.2.1.O.o.{ { AXAX  o o o . v AXAXAXAXAXAXAXAXAXAXAXAXAXAXAXAXAXAXAXAXAXAXAX",
"AXAXAXAXAXAXAXAXAXAXAXAXAXAXAXAXAXAXAXAXAXAXAXAX+.2.q.1.O.O.o.} { AXAXAXAXAXAXAXAXAXAXAXAXAXAXAXAXAXAXAXAXAXAXAXAXAXAXAXAXAXAXAX",
"AXAXAXAXAXAXAXAXAXAXAXAXAXAXAXAXAXAXAXAXAXAXAXAXAX .o.{ { } { { AXAXAXAXAXAXAXAXAXAXAXAXAXAXAXAXAXAXAXAXAXAXAXAXAXAXAXAXAXAXAXAX",
"AXAXAXAXAXAXAXAXAXAXAXAXAXAXAXAXAXAXAXAXAXAXAXAXAXAXAXAXAXAXAXAXAXAXAXAXAXAXAXAXAXAXAXAXAXAXAXAXAXAXAXAXAXAXAXAXAXAXAXAXAXAXAXAX"
};
