/* XPM */
static char *monster2[] = {
/* columns rows colors chars-per-pixel */
"48 64 236 2 ",
"   c black",
".  c #1F170B",
"X  c #170F07",
"o  c #4B4B4B",
"O  c gray100",
"+  c #1B1B1B",
"@  c #131313",
"#  c #0B0B0B",
"$  c #070707",
"%  c #2F371F",
"&  c #232B0F",
"*  c #171F07",
"=  c #0F1700",
"-  c #4F3B2B",
";  c #473323",
":  c #3F2B1B",
">  c #FFB7B7",
",  c #F7ABAB",
"<  c #F3A3A3",
"1  c #EB9797",
"2  c #E78F8F",
"3  c #DF8787",
"4  c #DB7B7B",
"5  c #D37373",
"6  c #CB6B6B",
"7  c #C76363",
"8  c #BF5B5B",
"9  c #BB5757",
"0  c #B34F4F",
"q  c #AF4747",
"w  c #A73F3F",
"e  c #A33B3B",
"r  c #9B3333",
"t  c #972F2F",
"y  c #8F2B2B",
"u  c #8B2323",
"i  c #831F1F",
"p  c #7F1B1B",
"a  c #771717",
"s  c #731313",
"d  c #6B0F0F",
"f  c #670B0B",
"g  c #5F0707",
"h  c #5B0707",
"j  c #530707",
"k  c #4F0000",
"l  c #470000",
"z  c #430000",
"x  c #FFEBDF",
"c  c #FFE3D3",
"v  c #FFDBC7",
"b  c #FFD3BB",
"n  c #FFCFB3",
"m  c #FFC7A7",
"M  c #FFBF9B",
"N  c #FFBB93",
"B  c #FFB383",
"V  c #F7AB7B",
"C  c #EFA373",
"Z  c #E79B6B",
"A  c #DF9363",
"S  c #D78B5B",
"D  c #CF8353",
"F  c #CB7F4F",
"G  c #BF7B4B",
"H  c #B37347",
"J  c #AB6F43",
"K  c #A36B3F",
"L  c #9B633B",
"P  c #8F5F37",
"I  c #875733",
"U  c #7F532F",
"Y  c #774F2B",
"T  c #6B4727",
"R  c #5F4323",
"E  c #533F1F",
"W  c #4B371B",
"Q  c #3F2F17",
"!  c #332B13",
"~  c #2B230F",
"^  c #EFEFEF",
"/  c #E7E7E7",
"(  c #DFDFDF",
")  c gray86",
"_  c LightGray",
"`  c #CBCBCB",
"'  c gray78",
"]  c gray75",
"[  c #B7B7B7",
"{  c gray70",
"}  c gray67",
"|  c #A7A7A7",
" . c #9F9F9F",
".. c #979797",
"X. c #939393",
"o. c #8B8B8B",
"O. c #838383",
"+. c gray50",
"@. c #777777",
"#. c #6F6F6F",
"$. c gray42",
"%. c gray39",
"&. c #5B5B5B",
"*. c gray34",
"=. c gray31",
"-. c gray28",
";. c #434343",
":. c gray23",
">. c #373737",
",. c #2F2F2F",
"<. c #272727",
"1. c #232323",
"2. c #77FF6F",
"3. c #6FEF67",
"4. c #67DF5F",
"5. c #5FCF57",
"6. c #5BBF4F",
"7. c #53AF47",
"8. c #4B9F3F",
"9. c #439337",
"0. c #3F832F",
"q. c #37732B",
"w. c #2F6323",
"e. c #27531B",
"r. c #1F4317",
"t. c #17330F",
"y. c #13230B",
"u. c #0B1707",
"i. c #BFA78F",
"p. c #B79F87",
"a. c #AF977F",
"s. c #A78F77",
"d. c #9F876F",
"f. c #9B7F6B",
"g. c #937B63",
"h. c #8B735B",
"j. c #836B57",
"k. c #7B634F",
"l. c #775F4B",
"z. c #6F5743",
"x. c #67533F",
"c. c #5F4B37",
"v. c #574333",
"b. c #533F2F",
"n. c #9F8363",
"m. c #8F7753",
"M. c #836B4B",
"N. c #775F3F",
"B. c #675333",
"V. c #5B472B",
"C. c #4F3B23",
"Z. c #43331B",
"A. c #7B7F63",
"S. c #6F7357",
"D. c #676B4F",
"F. c #5B6347",
"G. c #53573B",
"H. c #474F33",
"J. c #3F472B",
"K. c #373F27",
"L. c #FFFF73",
"P. c #EBDB57",
"I. c #D7BB43",
"U. c #C39B2F",
"Y. c #AF7B1F",
"T. c #9B5B13",
"R. c #874307",
"E. c #732B00",
"W. c gray100",
"Q. c #FFDBDB",
"!. c #FFBBBB",
"~. c #FF9B9B",
"^. c #FF7B7B",
"/. c #FF5F5F",
"(. c #FF3F3F",
"). c #FF1F1F",
"_. c red",
"`. c #EF0000",
"'. c #E30000",
"]. c #D70000",
"[. c #CB0000",
"{. c #BF0000",
"}. c #B30000",
"|. c #A70000",
" X c #9B0000",
".X c #8B0000",
"XX c #7F0000",
"oX c #730000",
"OX c #670000",
"+X c #5B0000",
"@X c #4F0000",
"#X c #430000",
"$X c #E7E7FF",
"%X c #C7C7FF",
"&X c #ABABFF",
"*X c #8F8FFF",
"=X c #7373FF",
"-X c #5353FF",
";X c #3737FF",
":X c #1B1BFF",
">X c blue",
",X c #0000E3",
"<X c #0000CB",
"1X c #0000B3",
"2X c #00009B",
"3X c #000083",
"4X c #00006B",
"5X c #000053",
"6X c gray100",
"7X c #FFEBDB",
"8X c #FFD7BB",
"9X c #FFC79B",
"0X c #FFB37B",
"qX c #FFA35B",
"wX c #FF8F3B",
"eX c #FF7F1B",
"rX c #F37317",
"tX c #EB6F0F",
"yX c #DF670F",
"uX c #D75F0B",
"iX c #CB5707",
"pX c #C34F00",
"aX c #B74700",
"sX c #AF4300",
"dX c gray100",
"fX c #FFFFD7",
"gX c #FFFFB3",
"hX c #FFFF8F",
"jX c #FFFF6B",
"kX c #FFFF47",
"lX c #FFFF23",
"zX c yellow",
"xX c #A73F00",
"cX c #9F3700",
"vX c #932F00",
"bX c #872300",
/* pixels */
"7.7.7.7.7.7.7.7.7.7.7.7.7.7.7.7.7.7.7.7.R R T T T R R 7.7.7.7.7.7.7.7.7.7.7.7.7.7.7.7.7.7.7.7.7.",
"7.7.7.7.7.7.7.7.7.7.7.7.7.7.7.7.7.7.7.R Y U I I I U Y R 7.7.7.7.7.7.7.7.7.7.7.7.7.7.7.7.7.7.7.7.",
"7.7.7.7.7.7.7.7.7.7.7.7.7.7.7.7.7.7.R T U I P L P I U T R 7.7.7.7.7.7.7.7.7.7.7.7.7.7.7.7.7.7.7.",
"7.7.7.7.7.7.7.7.7.7.7.7.7.7.7.7.7.7.W Y Y T Y U Y T Y Y W 7.7.7.7.7.7.7.7.7.7.7.7.7.7.7.7.7.7.7.",
"7.7.7.7.7.7.7.7.7.7.7.7.7.7.7.7.7.7.W R I R T R T R I R E 7.7.7.7.7.7.7.7.7.7.7.7.7.7.7.7.7.7.7.",
"7.7.7.7.7.7.7.7.7.7.7.7.7.7.7.7.7.E R ~ P U L Y L U P ~ R E 7.7.7.7.7.7.7.7.7.7.7.7.7.7.7.7.7.7.",
"7.7.7.7.7.7.7.7.7.7.7.7.7.7.7.7.7.Z.U Y }.~ E W E ~ }.Y U Z.7.7.7.7.7.7.7.7.7.7.7.7.7.7.7.7.7.7.",
"7.7.7.7.7.7.7.7.7.7.7.7.7.7.7.7.7.E T P P U P L P U P P T E 7.7.7.7.7.7.7.7.7.7.7.7.7.7.7.7.7.7.",
"7.7.7.7.7.7.7.7.7.7.7.7.7.7.7.7.7.,.W R U R W Q W R U R W ,.7.7.7.7.7.7.7.7.7.7.7.7.7.7.7.7.7.7.",
"7.7.7.7.7.7.7.7.7.7.7.7.7.7.7.7.7.>.W E t ! z z z ! t E W + 7.7.7.7.7.7.7.7.7.7.7.7.7.7.7.7.7.7.",
"7.7.7.7.7.7.7.7.7.7.7.7.7.7.7.7.k j Z.R u z  X}. Xz u R Z.+ + + + 7.7.7.7.7.7.7.7.7.7.7.7.7.7.7.",
"7.7.7.7.7.7.7.7.g g g g g g g g g l l E p z XXj XXz p E z 1.1.1.1.g g g g g g 7.7.7.7.7.7.7.7.7.",
"7.7.7.7.7.7.7.7.g g g g g g g g g l l E p z XXj XXz p E z 1.1.1.1.g g g g g g 7.7.7.7.7.7.7.7.7.",
"7.7.7.7.7.7.h h h a a p p p a s g z h j a z OXz h . d j + 1.,.,.,.a a p p a h h h 7.7.7.7.7.7.7.",
"7.7.7.7.7.g s a p g g p p s d d d g a s j . z z . . j z + 1.,.,.<.d d p p g i p s g 7.7.7.7.7.7.",
"7.7.7.7.k g s s a d d h f d g l g p p p a f # # # f a f 1.<.<.<.+ g g f h d p a s g k 7.7.7.7.7.",
"7.7.7.7.k g s s a d d h k h l h d p p p a a j # j a a + 1.1.+ + h l l k h d a s s g k 7.7.7.7.7.",
"7.7.7.7.k g s s a d d h k k l h h d d d d d j z j f + + + + @ # g l l k h d a s s g k 7.7.7.7.7.",
"7.7.7.7.z z k k k k k k z # h h h g g g g g j z j + @ @ @ @ # z z l l z k k k k k z z 7.7.7.7.7.",
"7.7.7.7.~ ! Q W Q ! ! ~ . # k k k j j j j j z z + @ @ # # # l z z # # . ~ Q W E R R W 7.7.7.7.7.",
"7.7.7.! W E E E W Q Q ~ . @ # z z l z h j & & + @ # # # # z z z # # # . ~ W R T Y T R E 7.7.7.7.",
"7.7.7.Q E R R E W ! ! ~ . @ # # # # # # % J.J.& # # # # # # # # # # # . . Q R T Y U Y E 7.7.7.7.",
"7.7.! W R R E W Q ~ ~ . @ @ z z z l + & % & & J.# # # k z z l l # # # 7.. ! W T Y U U T E 7.7.7.",
"7.7.Q E E W Q Q ~ ~ ~ + @ @ # k l + # * & & & & # k k l z z z l l # # E.. ~ W R T U U T E 7.7.7.",
"7.k Q W Q ! Q ~ <.1.1.1.<.+ @ z + # # # * & & # # z g d g j z k # E.E.E.E.~ Q E T Y.Y.Y.T.7.7.7.",
"7.k g g k z ~ ~ <.>.>.,.,.<.+ + # # # # # # # # # # # j s d f h h ,.,.E.E.E.W T Y.Y.Y I P I 7.7.",
"7.k g k z k z <.,.>.>.,.,.+ # # # # # # # # # # # # # * * * * * * * * * E.E.W T.Y.Y I Y Y P I 7.",
"7.! W W Q ! <.,.>.:.:.>.+ # # # # # # # # . . ~ ! Q E = & & & & * = = & E.E.W T.T.E T E T U P 7.",
"7.! R T R Q <.1.<.<.<.<.+ # # # # * . . . . . ~ ~ . W # * & & & * = = & 7.7.W T.Y.Q Q R R T U P ",
"7.! R T W ,.@ Q R :.:.@ <.+ # # 1.1.. . . . ~ ~ ~ ! Q + + + + * * = = * 7.7.7.T.T.Q Q W E T Y Y ",
"7.! W R W -.,.E T :.:.,.:.,.# + + + * * * * * * * * + 1.1.1.+ + ,.,.,.+ 7.7.T.T.E.Q Q W R E R 7.",
"7.Q W E :.=.R T -.,.,.>.;.<.T.E.@ @ * * & & % % & * 1.<.,.,.<.1.+ + + ,.7.7.T.R.7.7.7.W E W 7.7.",
"7.7.Q W ;.=.R Y -.,.,.:.;.<.Y.R.+ + @ = & & % % & * <.1.@ + + + <.+ + + ! T.T.R.7.7.7.7.7.7.7.7.",
"7.7.Q W ;.=.R Y -.,.,.:.;.<.Y.R.+ + @ = & & % % & * <.1.@ + + + <.+ + + ! T.T.R.7.7.7.7.7.7.7.7.",
"7.7.7.=.&.%.$.&.&.-.-.;.,.1.R.T.Y.E.l l @ * * * = <.@ + 1.1.l g a l l R.Y.T.7.7.7.7.7.7.7.7.7.7.",
"7.7.7.=.&.%.$.&.&.-.-.;.,.1.R.T.Y.E.l l @ * * * = <.@ + 1.1.l g a l l R.Y.T.7.7.7.7.7.7.7.7.7.7.",
"7.7.&.=.>.,.1.,.-.&.&.=.,.1.+ T.Y.T.E.# # + # # z + + l j g g d R.T.T.R.T.E.7.7.7.7.7.7.7.7.7.7.",
"7.7.>.1.,.:.>.1.,.,.,.=.:.1.+ E.T.Y.R.T.E.+ @ # # z l l l j R.T.R.Y.Y.T.E.+ 7.7.7.7.7.7.7.7.7.7.",
"7.,.,.1.:.-.:.,.:.>.>.1.:.,.l + E.Y.T.Y.R.T.R.E.z + j E.R.T.R.Y.T.T.T.E.+ + 7.7.7.7.7.7.7.7.7.7.",
"7.,.:.,.+ + + ,.:.:.:.1.1.,.l # h E.R.Y.T.Y.R.T.R.T.R.T.T.Y.T.R.E.g g # + + 7.7.7.7.7.7.7.7.7.7.",
"7.+ @ + <.<.<.+ @ + + <.<.# l # z k 1.E.R.Y.T.Y.T.Y.T.Y.R.E.d d d g g # + 7.7.7.7.7.7.7.7.7.7.7.",
"7.7.+ + <.<.<.<.+ + + <.l + f f z # # # 1.E.g E.g E.g E.h h h g f j j l 7.7.7.7.7.7.7.7.7.7.7.7.",
"7.7.7.<.+ # + <.<.<.<.7.+ + 1.<.h <.<.1.1.l @ @ # + # # # @ <.<.<.f f h l 7.7.7.7.7.7.7.7.7.7.7.",
"7.7.7.7.7.1.1.1.7.7.7.7.+ + 1.<.<.1.+ + 1.+ @ # + # @ 1.1.<.,.,.,.1.1.+ l 7.7.7.7.7.7.7.7.7.7.7.",
"7.7.7.7.7.7.7.7.7.7.7.7.7.h 1.1.1.1.+ + + @ # # # # l @ g p i i i p p f l 7.7.7.7.7.7.7.7.7.7.7.",
"7.7.7.7.7.7.7.7.7.7.7.7.7.h h s u u p s f k # # # # z h f s a a a s s h l 7.7.7.7.7.7.7.7.7.7.7.",
"7.7.7.7.7.7.7.7.7.7.7.7.7.h h h h h h h h k # # # # # z j h d d d g g l 7.7.7.7.7.7.7.7.7.7.7.7.",
"7.7.7.7.7.7.7.7.7.7.7.7.7.f h h h h h h z # # # z # z # # # # # z z z z 7.7.7.7.7.7.7.7.7.7.7.7.",
"7.7.7.7.7.7.7.7.7.7.7.7.7.p @ z z z z z # z z # z # # z # l l z z z z 7.7.7.7.7.7.7.7.7.7.7.7.7.",
"7.7.7.7.7.7.7.7.7.7.7.7.7.g p k k @ @ @ z l z # z z # # # # l z 7.7.7.7.7.7.7.7.7.7.7.7.7.7.7.7.",
"7.7.7.7.7.7.7.7.7.7.7.7.7.7.l d f f g h j k # # # z # # # # l 7.7.7.7.7.7.7.7.7.7.7.7.7.7.7.7.7.",
"7.7.7.7.7.7.7.7.7.7.7.7.7.7.l j k k k k k k z # # # # # # # h h 7.7.7.7.7.7.7.7.7.7.7.7.7.7.7.7.",
"7.7.7.7.7.7.7.7.7.7.7.7.7.7.7.l l l k k k z # # # # # # # l h h 7.7.7.7.7.7.7.7.7.7.7.7.7.7.7.7.",
"7.7.7.7.7.7.7.7.7.7.7.7.7.7.7.l l l k k k z # # # # # j g g a a 7.7.7.7.7.7.7.7.7.7.7.7.7.7.7.7.",
"7.7.7.7.7.7.7.7.7.7.7.7.7.7.7.l s f k k z # z # # l j g g d a h 7.7.7.7.7.7.7.7.7.7.7.7.7.7.7.7.",
"7.7.7.7.7.7.7.7.7.7.7.7.7.7.7.7.j d f g j j # # # l j g g d a g 7.7.7.7.7.7.7.7.7.7.7.7.7.7.7.7.",
"7.7.7.7.7.7.7.7.7.7.7.7.7.7.7.7.j d f g j j # # # l j g g d a g 7.7.7.7.7.7.7.7.7.7.7.7.7.7.7.7.",
"7.7.7.7.7.7.7.7.7.7.7.7.7.7.7.z l l z # # # z z # l l j g g d l 7.7.7.7.7.7.7.7.7.7.7.7.7.7.7.7.",
"7.7.7.7.7.7.7.7.7.7.7.7.7.7.7.z h l l l l l z z # l l l l l l l 7.7.7.7.7.7.7.7.7.7.7.7.7.7.7.7.",
"7.7.7.7.7.7.7.7.7.7.7.7.7.7.7.h d a f g h j l l 7.# # # # # # 7.7.7.7.7.7.7.7.7.7.7.7.7.7.7.7.7.",
"7.7.7.7.7.7.7.7.7.7.7.7.7.7.7.k f a f f g j l l 7.7.7.7.7.7.7.7.7.7.7.7.7.7.7.7.7.7.7.7.7.7.7.7.",
"7.7.7.7.7.7.7.7.7.7.7.7.7.7.7.z g g k k k l l z 7.7.7.7.7.7.7.7.7.7.7.7.7.7.7.7.7.7.7.7.7.7.7.7.",
"7.7.7.7.7.7.7.7.7.7.7.7.7.7.7.7.z z z z z z z 7.7.7.7.7.7.7.7.7.7.7.7.7.7.7.7.7.7.7.7.7.7.7.7.7.",
"7.7.7.7.7.7.7.7.7.7.7.7.7.7.7.7.7.7.7.7.7.7.7.7.7.7.7.7.7.7.7.7.7.7.7.7.7.7.7.7.7.7.7.7.7.7.7.7."
};
